<svg width="190" height="199" viewBox="0 0 190 199" fill="none" xmlns="http://www.w3.org/2000/svg">
<path d="M27.99 128.846C15.0651 112.14 3.40748 93.3946 0.966956 72.416C-1.47215 51.4375 7.58249 27.9136 26.7519 19.0382C43.4592 11.3049 64.1999 16.5111 78.1301 28.5475C92.0624 40.5818 99.9814 58.3 104.048 76.2553C110.517 56.427 119.483 37.4167 130.675 19.8137C136.676 10.3754 145.231 0.345851 156.407 0.854115C166.295 1.30366 173.746 10.0008 178.382 18.7445C191.358 43.206 192.077 72.8413 185.049 99.6213C177.55 128.204 152.172 192.206 118.345 197.67C84.0015 203.216 45.9316 152.037 27.99 128.846" fill="black"/>
</svg>
