<svg width="175" height="214" viewBox="0 0 175 214" fill="none" xmlns="http://www.w3.org/2000/svg">
<path d="M173.758 23.5242C171.51 12.8932 163.814 2.68748 153.1 0.986521C135.682 -1.78767 118.892 17.2875 112.573 31.4825C100.644 58.2524 101.251 86.055 95.1146 113.898C80.1272 84.3743 73.9701 52.542 48.9167 28.85C30.6078 11.5367 5.45317 3.84184 1.3215 35.8361C0.0657973 45.4547 2.31391 55.1541 4.96709 64.4689C21.0887 120.965 53.879 169.785 94.345 211.794C95.0944 212.568 96.0462 213.406 97.0994 213.159C97.7475 213.009 98.2133 212.477 98.6386 211.973C130.679 174.234 152.917 129.594 164.847 81.6001C169.383 63.3553 177.606 43.0855 173.859 23.9901C173.819 23.8484 173.799 23.6862 173.758 23.5242" fill="black"/>
</svg>
