<svg width="153" height="160" viewBox="0 0 153 160" fill="none" xmlns="http://www.w3.org/2000/svg">
<path d="M109.666 106.026C99.5134 117.062 88.5828 127.438 77.646 137.765C72.9189 132.411 67.9548 127.172 62.9786 121.922C64.694 120.772 65.9842 119.727 66.3184 119.135C80.9028 93.2907 95.6026 67.4381 112.573 43.0981C111.342 46.7633 109.681 50.2869 108.755 52.6763C105.401 61.3836 101.35 69.8073 97.235 78.1704C89.006 94.8884 80.5421 111.505 76.0722 129.707C75.3836 132.508 81.9275 129.809 82.4744 129.576C86.0592 128.051 90.0492 125.775 92.4209 122.6C103.969 107.129 116.249 92.2803 129.219 78.0286C124.389 88.2951 117.419 97.5959 109.666 106.026V106.026ZM18.7331 26.1696C19.1119 24.6509 19.8024 23.1727 20.3776 21.7147C20.6409 21.7754 20.9042 21.8564 21.1675 21.9172C23.0511 23.4561 26.4658 24.1041 28.6228 25.5823C30.5104 26.8985 32.2866 28.4375 33.9393 30.0372C36.155 32.1836 38.2087 34.5124 40.1571 36.9626C39.114 37.5903 38.3566 38.0965 38.1682 38.2382C31.3145 43.4019 24.9367 49.0516 19.0126 55.167C18.9397 54.8632 18.8526 54.5798 18.7838 54.2558C16.6855 45.022 16.4121 35.4034 18.7331 26.1696ZM69.5083 81.4307C73.0222 80.1145 77.6663 76.7935 80.2101 74.3635C76.2648 80.7016 72.4166 87.1004 68.6313 93.5539C68.9229 89.5141 69.2166 85.4806 69.5083 81.4307ZM43.193 97.6972C46.4214 93.8498 49.6477 90.0003 52.8761 86.1488C52.3171 93.8598 51.7581 101.569 51.2012 109.276C48.1024 105.846 45.0766 102.367 42.1865 98.8068C42.5368 98.4483 42.873 98.0799 43.193 97.6972V97.6972ZM54.3911 71.5691C51.7885 74.6673 49.186 77.7655 46.5854 80.8839C47.6568 74.9508 48.7303 69.0176 49.8058 63.0845C50.3364 60.1281 50.8893 57.2122 51.3592 54.2963C53.9131 58.9537 56.303 63.7326 58.6504 68.4304C56.4752 69.8479 54.7698 71.1236 54.3911 71.5691ZM21.7103 64.2388C22.0364 63.8743 22.3503 63.5299 22.6379 63.1452C26.6805 57.9208 31.0431 53.0611 35.7257 48.5252C35.989 57.0705 33.9413 65.5954 32.4183 74.0192C31.8816 76.9757 31.3428 79.9524 30.8061 82.9291C27.1828 77.0364 24.0779 70.8401 21.7103 64.2388ZM95.2522 42.0048C99.8517 32.4672 104.291 21.8768 110.892 13.4934C115.076 8.18806 121.434 13.4529 126.068 19.2847C121.464 19.8517 114.173 25.8861 112.579 27.8908C101.814 41.4175 92.0462 55.6125 82.833 70.1922C86.6872 60.6749 90.7944 51.2588 95.2522 42.0048V42.0048ZM135.747 54.8834C135.536 57.1109 135.196 59.2978 134.764 61.4645C122.947 73.2903 111.635 85.5818 100.824 98.3167C105.166 87.951 110.282 77.8667 115.24 67.7419C119.333 59.3788 123.315 50.9145 126.531 42.1667C127.937 38.3598 130.856 32.2445 131.115 26.9796C131.212 27.1618 131.301 27.3441 131.382 27.5263C135.419 36.0312 136.63 45.5686 135.747 54.8834V54.8834ZM151.419 27.1214C149.138 17.5433 143.032 4.98851 132.832 1.72834C122.546 -1.57234 110.025 5.55546 102.373 11.9138C93.4253 19.3657 88.4613 30.1385 83.2643 40.3037C80.2851 46.1356 77.4577 52.0283 74.7336 57.9614C71.005 50.9955 67.2459 44.0297 63.2519 37.2056C58.0488 28.3363 51.8068 19.5884 42.8163 14.1818C33.3053 8.47144 23.7012 10.5976 14.7655 16.3687C6.02006 22.0184 2.06662 30.1183 0.697498 40.2836C-5.58711 86.898 36.2502 118.712 63.821 150.891C63.6509 151.057 63.4768 151.221 63.3046 151.385C60.5481 154.037 62.1016 155.011 65.1558 154.588C65.6439 154.519 66.1461 154.406 66.6524 154.262C67.7684 155.617 68.8642 156.976 69.9153 158.336C72.5989 161.803 88.6335 151.148 86.6993 148.647C85.2066 146.715 83.6633 144.808 82.0835 142.92C100.054 125.959 119.181 109.288 134.147 89.6802C147.643 71.9943 156.766 49.5579 151.419 27.1214" fill="black"/>
</svg>
