<svg width="176" height="194" viewBox="0 0 176 194" fill="none" xmlns="http://www.w3.org/2000/svg">
<path d="M172.549 1.47704C172.142 0.0291919 168.047 1.12261 167.619 1.20968C135.435 7.73814 118.335 37.5496 104.368 64.2851C98.5009 75.5175 93.2573 87.0213 88.5829 98.7438C86.112 80.831 82.5595 63.1066 76.7975 45.9127C72.1493 32.0336 65.9963 15.5667 51.0615 9.96159C38.065 5.08144 23.6102 11.857 13.3762 19.7766C-15.9507 42.4602 12.5599 77.5101 25.8785 101.101C35.2437 117.689 44.6068 134.278 53.972 150.866C58.8267 159.468 63.6834 168.07 68.5381 176.67C71.6268 182.142 73.4759 187.526 80.595 187.097C81.0223 187.072 81.4881 187.012 81.9763 186.931C82.1869 188.63 82.4441 190.331 82.7823 192.038C83.8396 197.386 104.948 182.622 106.529 180.55C126.359 154.61 143.143 126.498 156.357 96.6318C169.473 66.9925 181.643 33.9877 172.549 1.47704" fill="black"/>
</svg>
