<svg width="161" height="170" viewBox="0 0 161 170" fill="none" xmlns="http://www.w3.org/2000/svg">
<path d="M144.914 8.21375C129.36 -7.78746 105.724 2.02955 93.8152 17.7047C87.2734 26.3209 84.357 36.9924 82.4532 47.4635C82.2304 48.7534 82.0277 50.0453 81.8252 51.3372C78.1188 41.99 71.8202 34.5483 62.5036 30.1177C43.0199 20.8495 14.6449 31.0168 4.94359 50.2762C-6.03372 72.0344 7.83978 96.9615 22.5235 112.967C41.7844 133.943 65.7238 151.115 87.5367 169.299C91.5266 172.63 105.826 160.857 104.327 159.61C85.8962 144.248 66.777 129.444 49.1971 113.123C35.3641 100.297 21.9361 84.8401 18.7766 65.6213C17.3994 57.2542 17.4804 39.9165 27.8906 37.4683C37.0451 35.3178 48.3061 39.9732 55.0504 45.9488C69.3088 58.5866 65.6631 80.4966 79.5164 93.0513C82.4127 95.6777 96.4886 87.8431 96.3469 84.1375C95.557 63.5477 96.2254 39.9448 104.448 20.6956C105.866 17.4192 107.831 13.0169 110.545 10.4453C110.869 10.3946 111.213 10.3339 111.679 10.2489C112.671 10.2934 113.664 10.3359 114.656 10.3805C116.985 10.6802 119.253 11.5448 121.34 12.6424C129.785 17.1033 135.173 26.2602 138.393 34.9351C154.596 78.6944 130.859 123.181 102.889 155.898C100.073 159.189 106.656 157.627 107.689 157.261C111.8 155.793 115.851 153.148 118.686 149.819C135.962 129.626 151.254 106.639 157.471 80.4602C162.899 57.5478 162.433 26.2136 144.914 8.21375" fill="black"/>
</svg>
